# xmcd
#
# Track frame offsets: 
#        150
#        19340
#        40856
#        57172
#        70402
#        89432
#        103057
#        125239
#        148724
#        181904
#        196409
#        227882
#        249976
#
# Disc length: 3578 seconds
#
# Revision: 0
# Processed by: cddbd v1.4PL0 Copyright (c) Steve Scherf et al.
# Submitted via: ExactAudioCopy v0.90b4
#
DISCID=be0df80d
DTITLE=Van Morrison - The Paramount - JAH vol 1, disc 1
DYEAR=1995
DGENRE=Celtic
TTITLE0=The New Symphony Sid
TTITLE1=Did Ye Get Healed ?
TTITLE2=Real Real Gone
TTITLE3=Tore Down A La Rimbaud
TTITLE4=Whenever God Shines His Light
TTITLE5=Days Like This
TTITLE6=Raincheck
TTITLE7=Sweet Thing
TTITLE8=See Me Through > Soldier Of Fortune > Thank You (Falletinme Be
TTITLE8=Mice Elf Agin)
TTITLE9=Ain't That Loving You Baby ?
TTITLE10=Satisfied
TTITLE11=No Religion
TTITLE12=You Don't Know Me
EXTD=
EXTT0=
EXTT1=
EXTT2=
EXTT3=
EXTT4=
EXTT5=
EXTT6=
EXTT7=
EXTT8=
EXTT9=
EXTT10=
EXTT11=
EXTT12=
PLAYORDER=
